PathFileType	4	(X/Y/Z)	D:\TRACE\v60_Jaco2_6-2-23\BothDRS_Motion1_6-platform.trc
DataRate	CameraRate	NumFrames	NumMarkers	Units	OrigDataRate	OrigDataStartFrame	OrigNumFrames
100.00	100.00	      54	5	mm	100.00	1876	      7500
Frame#	Time	Left_Front			Right_Front			Left_Aft			Right_Aft			Post			
		X1	Y1	Z1	X2	Y2	Z2	X3	Y3	Z3	X4	Y4	Z4	X5	Y5	Z5	

1876	18.750	-750.91486	-13.97967	-644.35858	818.95374	-12.31310	-649.64142	-659.23071	22.73066	490.27820	782.86334	22.94983	499.44955	34.63556	1274.11047	-1010.36731	
1877	18.760	-750.58923	-13.55049	-644.31891	819.08197	-12.00621	-649.66394	-659.02039	22.64816	490.27618	782.90753	22.70940	499.49725	34.92173	1274.50452	-1009.27429	
1878	18.770	-750.30017	-13.22707	-644.31036	819.15436	-11.64255	-649.55096	-658.78052	22.55855	490.34552	783.06482	22.54758	499.52866	34.94965	1274.75891	-1008.77179	
1879	18.780	-750.17291	-12.97572	-644.28015	819.30737	-11.38731	-649.46558	-658.70056	22.49534	490.39713	783.16028	22.59951	499.57959	35.21873	1275.29712	-1008.26453	
1880	18.790	-750.21771	-12.80963	-644.21973	819.40106	-11.20784	-649.45563	-658.68890	22.33651	490.43204	783.36652	22.46788	499.65167	35.17054	1275.62183	-1008.10376	
1881	18.800	-750.27759	-12.66739	-644.11597	819.31024	-10.90986	-649.43903	-658.71759	22.12749	490.50656	783.24237	22.25958	499.70325	35.06863	1276.14307	-1007.92761	
1882	18.810	-750.30249	-12.45383	-643.93787	819.45404	-10.67728	-649.34332	-658.60455	21.71920	490.59644	783.35236	22.07584	499.73834	35.04633	1276.42383	-1007.84753	
1883	18.820	-750.19183	-12.42617	-644.01398	819.51923	-10.29310	-649.24597	-658.37982	21.54883	490.72220	783.30853	21.87843	499.85980	35.06091	1276.74731	-1007.82898	
1884	18.830	-750.22107	-12.09875	-643.88287	819.55017	-9.92596	-649.23962	-658.36456	21.29268	490.76379	783.41425	21.76135	499.94992	35.34727	1277.28442	-1007.46454	
1885	18.840	-750.25659	-11.78929	-643.82465	819.53418	-9.76600	-649.22717	-658.37451	21.10544	490.79782	783.48187	21.62221	500.01620	35.39260	1277.62561	-1007.03406	
1886	18.850	-750.33484	-11.63907	-643.72253	819.46808	-9.66906	-649.18390	-658.53198	20.89975	490.89163	783.56238	21.46239	500.14447	35.50055	1277.88074	-1006.59052	
1887	18.860	-750.36749	-11.48948	-643.59204	819.50293	-9.56950	-649.10034	-658.65424	20.69674	490.98767	783.47009	21.06001	500.19101	35.57961	1278.14709	-1006.09851	
1888	18.870	-750.28961	-11.18335	-643.53760	819.45129	-9.31465	-649.05145	-658.63635	20.53566	491.07129	783.56909	20.88789	500.20279	35.23776	1278.66016	-1005.07599	
1889	18.880	-750.23596	-10.72944	-643.51050	819.59857	-8.83701	-648.84088	-658.57104	20.43798	491.12158	783.31573	20.64055	500.20215	35.25471	1279.29919	-1004.32294	
1890	18.890	-750.28888	-10.17842	-643.50916	819.63782	-8.36550	-648.71301	-658.48663	20.32990	491.15979	783.40118	20.46784	500.27905	35.24383	1279.74475	-1003.43842	
1891	18.900	-750.47626	-9.87554	-643.32532	819.53119	-8.07864	-648.64557	-658.54462	20.14490	491.24615	783.31055	20.25377	500.37180	35.05097	1280.08167	-1002.40167	
1892	18.910	-750.84460	-9.65742	-643.32642	819.13562	-7.81536	-648.52771	-658.45526	19.37659	491.52640	782.86914	20.05518	500.53067	34.85329	1280.58069	-1001.45734	
1893	18.920	-751.13507	-9.43269	-643.30933	818.81134	-7.56709	-648.44897	-658.95471	19.15848	491.51297	782.77014	19.88932	500.64133	34.10991	1281.15320	-1000.46710	
1894	18.930	-751.52283	-8.94587	-643.40851	818.68823	-7.31292	-648.39832	-659.19659	18.99541	491.60388	782.62842	19.74514	500.74649	33.96981	1281.79700	-1000.00391	
1895	18.940	-751.68829	-8.60932	-643.27667	818.37158	-6.91528	-648.37140	-659.51282	18.91070	491.62384	782.43964	19.59894	500.78796	33.90826	1282.12903	-999.24585	
1896	18.950	-751.88208	-8.36628	-643.30420	818.19293	-6.53899	-648.39624	-659.71814	18.67507	491.58810	782.36761	19.45504	500.81500	33.77187	1282.41321	-998.58130	
1897	18.960	-752.17914	-8.26591	-643.10217	817.93524	-6.23222	-648.30115	-659.71790	18.20197	491.69080	782.02905	19.21484	500.92206	33.69676	1282.67480	-998.21240	
1898	18.970	-752.50665	-8.12046	-643.06580	817.64978	-6.07547	-648.32471	-659.97345	18.02540	491.70697	781.71692	19.00932	500.96552	33.74014	1282.97974	-997.91010	
1899	18.980	-752.70770	-7.86662	-643.12408	817.41187	-5.84084	-648.40271	-660.19763	17.77067	491.74124	781.34753	18.72199	500.95059	33.10017	1283.37512	-997.81189	
1900	18.990	-752.91284	-7.54418	-642.95428	817.21008	-5.39296	-648.35278	-660.35284	17.35602	491.98724	781.46844	18.79544	501.04474	32.59747	1284.02551	-997.35364	
1901	19.000	-753.29114	-7.24003	-642.80676	816.85364	-5.08699	-648.07471	-661.14801	18.00137	491.76227	780.30786	18.27974	501.10751	32.28724	1284.58838	-996.94275	
1902	19.010	-753.76855	-6.93834	-642.57654	816.37659	-4.70438	-647.90930	-661.62988	17.89832	491.86636	780.14551	18.18597	501.18277	32.07633	1284.94690	-996.79480	
1903	19.020	-754.25458	-6.82556	-642.50330	815.93103	-4.80056	-647.84320	-662.36591	17.89663	491.78152	779.85583	17.92792	501.29169	31.65331	1285.47095	-996.36560	
1904	19.030	-754.60077	-6.71718	-642.65332	815.52448	-4.47984	-647.80066	-662.72839	17.44507	492.17151	779.60999	17.74031	501.38348	31.21751	1285.66785	-995.36755	
1905	19.040	-754.99664	-6.32934	-642.71259	814.94019	-4.31623	-647.77026	-662.96686	17.22374	492.18082	779.17218	17.51167	501.45667	31.19854	1286.01843	-994.71985	
1906	19.050	-755.30420	-5.79378	-642.63593	814.50128	-3.99429	-647.82538	-663.31171	17.00698	492.20526	778.58521	17.20104	501.42801	30.36141	1286.63379	-993.68005	
1907	19.060	-755.65436	-5.21518	-642.59729	814.22113	-3.43611	-647.61658	-664.44800	17.68215	492.68176	778.30017	17.09453	501.53894	29.75210	1287.20618	-993.05676	
1908	19.070	-756.13428	-5.03105	-642.46552	813.84076	-3.02552	-647.62476	-664.92542	17.49251	492.73700	777.71527	16.87721	501.67215	29.35643	1287.45508	-992.00781	
1909	19.080	-756.80530	-4.70395	-642.31628	813.52600	-2.65953	-647.50238	-665.23993	17.12242	492.64197	777.48639	16.69967	501.77805	29.24153	1287.88281	-991.20361	
1910	19.090	-757.28064	-4.48744	-642.25970	813.07562	-2.51516	-647.53540	-665.50140	16.52815	492.72049	777.11548	16.42428	501.95105	28.44644	1288.47766	-990.12231	
1911	19.100	-757.60950	-4.25819	-642.23981	812.34601	-2.06624	-647.47870	-666.09766	16.21446	492.73270	776.57648	16.22492	501.96838	28.25917	1289.04785	-989.31952	
1912	19.110	-758.05463	-3.72782	-642.13055	811.83569	-1.85605	-647.36169	-666.25427	15.94152	493.06213	775.73230	15.75981	501.95959	27.86940	1289.60950	-988.50159	
1913	19.120	-758.59735	-3.32413	-642.04761	811.45746	-1.57060	-647.02478	-666.74731	15.69812	493.20172	774.30402	14.80732	502.74149	27.06716	1290.23682	-987.94006	
1914	19.130	-759.08411	-3.17557	-641.85547	810.88922	-1.33373	-647.00537	-667.27960	15.54022	493.22852	774.78534	15.33009	503.05087	26.54000	1290.73035	-987.46802	
1915	19.140	-759.76172	-2.95285	-641.82050	810.36896	-0.88533	-647.03229	-667.97150	15.37294	493.21228	774.52472	15.27392	502.96466	26.18688	1291.12524	-986.80853	
1916	19.150	-760.47180	-2.70986	-641.70789	809.78766	-0.62396	-647.06451	-668.47552	14.98644	493.19876	773.94879	15.01635	502.85025	26.11289	1291.34705	-986.30286	
1917	19.160	-760.89905	-2.34538	-641.61969	809.36877	-0.48236	-646.96704	-668.75519	14.64712	493.31458	773.54602	14.89933	502.88293	25.15719	1292.03259	-985.76361	
1918	19.170	-761.21008	-2.02962	-641.62775	808.84363	-0.09773	-646.80872	-669.20349	14.38337	493.37976	772.72919	14.58618	503.18140	24.52182	1292.58594	-984.95215	
1919	19.180	-761.80841	-1.43088	-641.66144	807.89832	0.45065	-646.63446	-670.00708	14.25329	493.50259	772.46478	14.31950	503.26865	24.22590	1293.09741	-984.65210	
1920	19.190	-762.55066	-1.08851	-641.56183	807.35248	0.85403	-646.47852	-670.55249	13.95192	493.63666	771.72772	14.04078	503.29465	23.32988	1293.55066	-983.88330	
1921	19.200	-763.32556	-0.84759	-641.55042	806.98059	1.01617	-646.43604	-671.15216	13.68453	493.77029	771.28796	13.83449	503.30692	22.80578	1293.96399	-983.33209	
1922	19.210	-763.87555	-0.38141	-641.50494	806.45337	1.30478	-646.51373	-671.69592	13.32757	493.80423	769.78235	12.74120	502.74521	21.82434	1294.58167	-982.14758	
1923	19.220	-764.24677	-0.19184	-641.39484	805.55664	1.74601	-646.41467	-672.29193	13.17083	493.93051	769.33514	12.68983	503.09482	21.52269	1295.25745	-981.56152	
1924	19.230	-765.03864	0.33983	-641.13538	805.02759	2.21524	-646.17444	-673.04565	13.02205	493.95520	768.93823	12.63746	503.47961	20.82824	1295.70679	-980.51709	
1925	19.240	-765.51538	0.77266	-641.17950	804.44647	2.71929	-646.07788	-673.54663	12.89045	494.08963	768.22357	12.48907	503.61996	20.16148	1296.18140	-979.83398	
1926	19.250	-766.57819	1.07511	-640.89502	803.93005	2.91672	-646.05048	-674.22467	12.44236	494.00867	767.62445	12.28397	503.56122	19.47483	1296.83447	-978.56024	
1927	19.260	-767.08740	1.27465	-640.90027	803.11407	3.25833	-645.90704	-674.92407	12.13517	494.11655	767.08997	12.15817	503.82663	18.83801	1297.26025	-977.87299	
1928	19.270	-767.51685	1.64648	-641.01282	802.35638	3.51384	-645.76178	-675.58118	11.82451	494.26904	766.42340	12.06003	503.95435	18.41099	1297.75977	-977.03107	
1929	19.280	-768.26135	2.05935	-640.80609	801.67084	3.75870	-645.83337	-676.17590	11.38408	494.30408	765.45288	11.70992	503.76721	17.82528	1298.32751	-975.86652	
